<svg width="128" height="40" viewBox="0 0 128 40" fill="none" xmlns="http://www.w3.org/2000/svg">
  <rect width="128" height="40" rx="10" fill="white"/>
  <circle cx="49" cy="20" r="11" fill="#EB001B"/>
  <circle cx="67" cy="20" r="11" fill="#F79E1B"/>
  <path d="M58 11.2C60.5573 13.2551 62.2 16.4094 62.2 20C62.2 23.5906 60.5573 26.7449 58 28.8C55.4427 26.7449 53.8 23.5906 53.8 20C53.8 16.4094 55.4427 13.2551 58 11.2Z" fill="#FF5F00"/>
  <path d="M75.5 26.4V13.6H79.1L82 21.1L84.9 13.6H88.5V26.4H85.9V16.7L82.9 24.5H81.1L78.1 16.7V26.4H75.5Z" fill="#231F20"/>
  <path d="M94.2635 26.7C91.4903 26.7 89.5635 24.7314 89.5635 21.85C89.5635 18.9686 91.4903 17 94.2635 17C97.0367 17 98.9635 18.9686 98.9635 21.85C98.9635 24.7314 97.0367 26.7 94.2635 26.7ZM94.2635 24.4C95.6186 24.4 96.3928 23.402 96.3928 21.85C96.3928 20.298 95.6186 19.3 94.2635 19.3C92.9084 19.3 92.1342 20.298 92.1342 21.85C92.1342 23.402 92.9084 24.4 94.2635 24.4Z" fill="#231F20"/>
  <path d="M101.131 26.4V17.3H103.617V18.398C104.193 17.5922 105.161 17 106.366 17C108.733 17 110.33 18.8706 110.33 21.85C110.33 24.8294 108.733 26.7 106.366 26.7C105.221 26.7 104.274 26.1461 103.617 25.3176V26.4H101.131ZM105.694 24.4167C107.008 24.4167 107.76 23.4186 107.76 21.85C107.76 20.2814 107.008 19.2833 105.694 19.2833C104.379 19.2833 103.617 20.2814 103.617 21.85C103.617 23.4186 104.379 24.4167 105.694 24.4167Z" fill="#231F20"/>
</svg>
